<?xml version="1.0" encoding="UTF-8"?>
<svg id="Layer_1" xmlns="http://www.w3.org/2000/svg" version="1.1" viewBox="0 0 25 25">
  <!-- Generator: Adobe Illustrator 29.7.1, SVG Export Plug-In . SVG Version: 2.1.1 Build 8)  -->
  <defs>
    <style>
      .st0 {
        fill: #fff;
      }
    </style>
  </defs>
  <path class="st0" d="M5.5,21.2c-.3,0-.6,0-.8-.2-.2-.1-.4-.3-.5-.5-.1-.2-.2-.5-.2-.8v-3.4c0-.4,0-.7-.2-.9-.2-.2-.5-.3-.9-.3-.1,0-.2,0-.3-.2,0,0-.1-.2-.1-.3s0-.3.1-.3c0,0,.2-.1.3-.1.4,0,.7-.1.9-.3.2-.2.2-.5.2-.9v-3.4c0-.5.1-.9.4-1.1.3-.3.6-.4,1.1-.4h4.1c.2,0,.3,0,.4.1.1,0,.2.2.2.3s0,.2-.1.3-.2.1-.3.1h-3.8c-.2,0-.4,0-.5.2-.1.1-.2.3-.2.5v3.4c0,.3,0,.6-.2.8-.1.2-.3.4-.5.6-.2.1-.4.2-.7.2h0c.3,0,.5,0,.7.1.2.1.4.3.5.6.1.2.2.5.2.8v3.4c0,.2,0,.4.2.5.1.1.3.2.5.2h3.8c.1,0,.3,0,.3.1,0,0,.1.2.1.3s0,.2-.2.3c-.1,0-.2.1-.4.1h-4.1Z"/>
  <path class="st0" d="M15.4,21.2c-.2,0-.3,0-.4-.1-.1,0-.2-.2-.2-.3s0-.2.1-.3c0,0,.2-.1.3-.1h3.8c.2,0,.4,0,.5-.2.1-.1.2-.3.2-.5v-3.4c0-.3,0-.6.2-.8.1-.2.3-.4.5-.6.2-.1.4-.2.7-.2h0c-.3,0-.5,0-.7-.1-.2-.1-.4-.3-.5-.6-.1-.2-.2-.5-.2-.8v-3.4c0-.2,0-.4-.2-.5-.1-.1-.3-.2-.5-.2h-3.8c-.1,0-.3,0-.3-.1,0,0-.1-.2-.1-.3s0-.3.2-.3c.1,0,.2-.1.4-.1h4.1c.5,0,.9.1,1.1.4s.4.6.4,1.1v3.4c0,.4,0,.7.2.9.2.2.5.3.9.3.1,0,.2,0,.3.1,0,0,.1.2.1.3s0,.2-.1.3c0,0-.2.1-.3.1-.4,0-.7.1-.9.3-.2.2-.2.5-.2.9v3.4c0,.3,0,.6-.2.8-.1.2-.3.4-.5.5-.2.1-.5.2-.8.2h-4.1Z"/>
  <path class="st0" d="M16.5,15.8c.7,0,1.3-.6,1.3-1.3s-.6-1.3-1.3-1.3-1.3.6-1.3,1.3.6,1.3,1.3,1.3Z"/>
  <path class="st0" d="M9,15.8c.7,0,1.3-.6,1.3-1.3s-.6-1.3-1.3-1.3-1.3.6-1.3,1.3.6,1.3,1.3,1.3Z"/>
  <path class="st0" d="M12,4.1v2.7c-.1.2-.2.2-.5.2s-.4,0-.4-.2c0-.7,0-1.2,0-1.6,0-.4,0-.6,0-.8,0-.2,0-.3,0-.3h0c0-.2.2-.3.5-.3s.5.1.5.3ZM14.2,4.1v2.7c-.1.2-.2.2-.5.2s-.4,0-.4-.2c0-.7,0-1.2,0-1.6,0-.4,0-.6,0-.8,0-.2,0-.3,0-.3h0c0-.2.2-.3.5-.3s.5.1.5.3Z"/>
</svg>